# xmcd CD database file
#
# Track frame offsets:
#	150
#	5047
#	11780
#	30767
#	52115
#	92562
#	120170
#	139595
#	157812
#	187162
#	209262
#	235040
#	267925
#	295655
#
# Disc length: 4330 seconds
#
# Revision: 6
# Processed by: cddbd v1.5.2PL0 Copyright (c) Steve Scherf et al.
# Submitted via: CDex 1.51
#
DISCID=b110e80e
DTITLE=Kansas - Live At The Whisky
DYEAR=1900
DGENRE=Progressive Rock
TTITLE0=Introduction
TTITLE1="Howlin' At The Moon" from Magnum Opus
TTITLE2=Paradox
TTITLE3=Point Of Know Return
TTITLE4=Song For America
TTITLE5=The Wall
TTITLE6=Hold On
TTITLE7=Dust In The Wind
TTITLE8=Miracles Ot Of Nowhere
TTITLE9=Mysteries And Mayhem
TTITLE10=Portrait
TTITLE11=Carry On Wayward Son
TTITLE12=Down The Road
TTITLE13=Lonely Street
EXTD=
EXTT0=
EXTT1=
EXTT2=
EXTT3=
EXTT4=
EXTT5=
EXTT6=
EXTT7=
EXTT8=
EXTT9=
EXTT10=
EXTT11=
EXTT12=
EXTT13=
PLAYORDER=
